<?xml version="1.0" encoding="UTF-8"?>
<svg width="14px" height="14px" viewBox="0 0 14 14" version="1.1" xmlns="http://www.w3.org/2000/svg" xmlns:xlink="http://www.w3.org/1999/xlink">
    <!-- Generator: Sketch 50.2 (55047) - http://www.bohemiancoding.com/sketch -->
    <title>icon_menu_data</title>
    <desc>Created with Sketch.</desc>
    <defs></defs>
    <g id="数据" stroke="none" stroke-width="1" fill="none" fill-rule="evenodd" opacity="0.649999976">
        <g transform="translate(-24.000000, -93.000000)" fill="#FFFFFF" fill-rule="nonzero" id="Group-3">
            <g>
                <g id="Group-6" transform="translate(24.000000, 88.097778)">
                    <g id="Group-3-Copy" transform="translate(0.000000, 4.004444)">
                        <g id="dashboard" transform="translate(0.000000, 1.001111)">
                            <path d="M7,0 C3.13359375,0 0,3.21088339 0,7.17265399 C0,9.51917653 1.09921875,11.6023282 2.8,12.9107772 L2.80136719,12.9079754 C2.88476562,12.9738181 2.99003906,13.0144444 3.10351562,13.0144444 C3.37558594,13.0144444 3.59570312,12.7888981 3.59570312,12.5101172 C3.59570312,12.3251972 3.49863281,12.1640927 3.35371094,12.0758354 C2.83691406,11.6723736 2.38574219,11.1834564 2.02070313,10.6314983 L2.625,10.2742665 C2.83417969,10.1509865 2.90527344,9.87640832 2.78496094,9.66206925 C2.66464844,9.44773018 2.39667969,9.37488291 2.1875,9.4981629 L1.58320313,9.85539469 C1.25917969,9.17175111 1.05546875,8.41666116 1.00078125,7.62094486 L1.6953125,7.62094486 C1.93730469,7.62094486 2.1328125,7.42061488 2.1328125,7.17265399 C2.1328125,6.9246931 1.93730469,6.72436311 1.6953125,6.72436311 L1.00078125,6.72436311 C1.05683594,5.92584499 1.26191406,5.16935414 1.5859375,4.48290874 L2.1875,4.83873962 C2.39667969,4.96201961 2.66464844,4.88917235 2.78496094,4.67483327 C2.90527344,4.4604942 2.83417969,4.18591604 2.625,4.06263605 L2.02480469,3.70820608 C2.45136719,3.06658976 2.99277344,2.51182981 3.61894531,2.0747462 L3.96484375,2.68974525 C4.08515625,2.90408432 4.353125,2.97693159 4.56230469,2.8536516 C4.77148438,2.73037161 4.84257813,2.45579345 4.72226562,2.24145437 L4.375,1.62505442 C5.04355469,1.29163808 5.78183594,1.08290264 6.5625,1.02546537 L6.5625,1.73712714 C6.5625,1.98508803 6.75800781,2.18541801 7,2.18541801 C7.24199219,2.18541801 7.4375,1.98508803 7.4375,1.73712714 L7.4375,1.02546537 C8.2140625,1.08290264 8.95097656,1.29163808 9.61816406,1.6222526 L9.26953125,2.24145437 C9.14921875,2.45579345 9.2203125,2.73037161 9.42949219,2.8536516 C9.63867188,2.97693159 9.90664062,2.90408432 10.0269531,2.68974525 L10.3755859,2.07054348 C11.0044922,2.50762708 11.5472656,3.06378794 11.9751953,3.70820608 L11.375,4.06263605 C11.1658203,4.18591604 11.0947266,4.4604942 11.2150391,4.67483327 C11.3353516,4.88917235 11.6033203,4.96201961 11.8125,4.83873962 L12.4140625,4.48290874 C12.7394531,5.16795324 12.9431641,5.92584499 12.9992187,6.72436311 L12.3046875,6.72436311 C12.0626953,6.72436311 11.8671875,6.9246931 11.8671875,7.17265399 C11.8671875,7.42061488 12.0626953,7.62094486 12.3046875,7.62094486 L12.9992187,7.62094486 C12.9431641,8.41806207 12.7394531,9.17175111 12.4167969,9.85539469 L11.8125,9.4981629 C11.6033203,9.37488291 11.3353516,9.44773018 11.2150391,9.66206925 C11.0947266,9.87640832 11.1658203,10.1509865 11.375,10.2742665 L11.9792969,10.6314983 C11.6046875,11.1974655 11.1412109,11.6947882 10.609375,12.1038536 L10.6121094,12.1080563 C10.4931641,12.2005163 10.4179688,12.3462109 10.4179688,12.5101172 C10.4179688,12.7888981 10.6380859,13.0144444 10.9101562,13.0144444 C11.046875,13.0144444 11.1712891,12.9570072 11.2615234,12.8631463 C12.9267578,11.5532964 14,9.49115835 14,7.17265399 C14,3.21088339 10.8664062,0 7,0 Z" id="Shape"></path>
                            <path d="M9.1546875,4.88637053 L7.43613281,6.26206315 C7.30488281,6.19481952 7.15585938,6.15839589 7,6.15839589 C6.45585938,6.15839589 6.015625,6.60948858 6.015625,7.16705035 C6.015625,7.72461213 6.45585938,8.17570482 7,8.17570482 C7.54414062,8.17570482 7.984375,7.72461213 7.984375,7.16705035 C7.984375,7.10120763 7.97890625,7.03816673 7.96660156,6.97652673 L9.69335938,5.59242866 C9.88339844,5.43972958 9.91757812,5.15814687 9.76855469,4.96342052 C9.61953125,4.76869418 9.34472656,4.73367145 9.1546875,4.88637053 Z" id="Shape"></path>
                        </g>
                    </g>
                </g>
            </g>
        </g>
    </g>
</svg>