<?xml version="1.0" encoding="UTF-8"?>
<svg width="14px" height="14px" viewBox="0 0 14 14" version="1.1" xmlns="http://www.w3.org/2000/svg" xmlns:xlink="http://www.w3.org/1999/xlink">
    <!-- Generator: Sketch 50.2 (55047) - http://www.bohemiancoding.com/sketch -->
    <title>icon_menu_ad</title>
    <desc>Created with Sketch.</desc>
    <defs></defs>
    <g id="数据" stroke="none" stroke-width="1" fill="none" fill-rule="evenodd" opacity="0.65">
        <g transform="translate(-24.000000, -201.000000)" id="Group-3">
            <g>
                <g id="Group-4" transform="translate(24.000000, 197.218889)">
                    <g id="Group-9-Copy" transform="translate(0.000000, 4.004444)">
                        <rect id="Rectangle-7" x="0" y="0" width="14" height="14.0155556"></rect>
                        <path d="M11.7578125,6.89828125 C11.4857422,6.89828125 11.265625,7.11864301 11.265625,7.39101563 C11.265625,7.41017752 11.2669922,7.4279707 11.2683594,7.44576389 L11.265625,7.44576389 L11.265625,12.1541146 L1.859375,12.1541146 L1.859375,2.73741319 L7,2.73741319 C7.27207031,2.73741319 7.4921875,2.51705143 7.4921875,2.24467882 C7.4921875,1.97230621 7.27207031,1.75194444 7,1.75194444 L1.859375,1.75194444 C1.31523437,1.75194444 0.875,2.19266797 0.875,2.73741319 L0.875,12.1541146 C0.875,12.6988598 1.31523437,13.1395833 1.859375,13.1395833 L11.265625,13.1395833 C11.8097656,13.1395833 12.25,12.6988598 12.25,12.1541146 L12.25,7.44576389 L12.2472656,7.44576389 C12.2486328,7.4279707 12.25,7.41017752 12.25,7.39101563 C12.25,7.11864301 12.0298828,6.89828125 11.7578125,6.89828125 Z" id="Shape" fill="#FFFFFF" fill-rule="nonzero"></path>
                        <path d="M13.7087891,1.37281272 L12.6246094,0.287428385 C12.2404297,-0.0971781684 11.6142578,-0.0944407552 11.2300781,0.290165799 L5.79960938,5.7266684 C5.75996094,5.76636089 5.72851563,5.81426562 5.70664063,5.86627648 L4.3421875,9.08821181 C4.265625,9.26888108 4.31894531,9.45091905 4.43515625,9.56862782 C4.55136719,9.68633659 4.73457031,9.73971615 4.91640625,9.66306858 L8.13613281,8.2984681 C8.18808594,8.27656879 8.23457031,8.24508854 8.27558594,8.20539605 L13.7060547,2.76889345 C14.0902344,2.38428689 14.0929688,1.75741927 13.7087891,1.37281272 Z M7.65351563,7.43207682 L5.775,8.22866406 L6.57070313,6.3480612 L10.3824219,2.5321072 L11.4652344,3.61612283 L7.65351563,7.43207682 Z M13.0087891,2.07085308 L12.1611328,2.91945117 L11.0783203,1.83543555 L11.9259766,0.986837457 L11.9287109,0.984100043 L13.0115234,2.06811567 L13.0087891,2.07085308 Z" id="Shape" fill="#FFFFFF" fill-rule="nonzero"></path>
                    </g>
                </g>
            </g>
        </g>
    </g>
</svg>