<?xml version="1.0" encoding="UTF-8"?>
<svg width="14px" height="14px" viewBox="0 0 14 14" version="1.1" xmlns="http://www.w3.org/2000/svg" xmlns:xlink="http://www.w3.org/1999/xlink">
    <!-- Generator: Sketch 50.2 (55047) - http://www.bohemiancoding.com/sketch -->
    <title>icon_menu_user</title>
    <desc>Created with Sketch.</desc>
    <defs></defs>
    <g id="数据" stroke="none" stroke-width="1" fill="none" fill-rule="evenodd" opacity="0.65">
        <g transform="translate(-24.000000, -364.000000)" fill="#FFFFFF" fill-rule="nonzero" id="Group-3">
            <g>
                <g id="Group-5" transform="translate(24.000000, 359.398889)">
                    <g id="Group-5-Copy" transform="translate(0.000000, 6.006667)">
                        <g id="列表">
                            <path d="M13.015625,0 L0.984375,0 C0.440234375,0 0,0.461710359 0,1.03239583 L0,4.24429398 L0,5.16197917 L0,7.11206019 L0,8.02974537 L0,9.97982639 C0,10.5505119 0.440234375,11.0122222 0.984375,11.0122222 L4.375,11.0122222 L5.25,11.0122222 L8.75,11.0122222 L9.625,11.0122222 L13.015625,11.0122222 C13.5597656,11.0122222 14,10.5505119 14,9.97982639 L14,8.02974537 L14,7.11206019 L14,5.16197917 L14,4.24429398 L14,1.03239583 C14,0.461710359 13.5597656,0 13.015625,0 Z M5.25,4.24429398 L5.25,2.29421296 L8.75,2.29421296 L8.75,4.24429398 L5.25,4.24429398 Z M8.75,5.16197917 L8.75,7.11206019 L5.25,7.11206019 L5.25,5.16197917 L8.75,5.16197917 Z M0.984375,2.29421296 L4.375,2.29421296 L4.375,4.24429398 L0.984375,4.24429398 L0.984375,2.29421296 Z M0.984375,5.16197917 L4.375,5.16197917 L4.375,7.11206019 L0.984375,7.11206019 L0.984375,5.16197917 Z M0.984375,9.97982639 L0.984375,8.02974537 L4.375,8.02974537 L4.375,9.97982639 L0.984375,9.97982639 Z M5.25,9.97982639 L5.25,8.02974537 L8.75,8.02974537 L8.75,9.97982639 L5.25,9.97982639 Z M13.015625,9.97982639 L9.625,9.97982639 L9.625,8.02974537 L13.015625,8.02974537 L13.015625,9.97982639 Z M13.015625,7.11206019 L9.625,7.11206019 L9.625,5.16197917 L13.015625,5.16197917 L13.015625,7.11206019 Z M9.625,4.24429398 L9.625,2.29421296 L13.015625,2.29421296 L13.015625,4.24429398 L9.625,4.24429398 Z" id="Shape"></path>
                        </g>
                    </g>
                </g>
            </g>
        </g>
    </g>
</svg>