<?xml version="1.0" encoding="UTF-8"?>
<svg width="14px" height="14px" viewBox="0 0 14 14" version="1.1" xmlns="http://www.w3.org/2000/svg" xmlns:xlink="http://www.w3.org/1999/xlink">
    <!-- Generator: Sketch 50.2 (55047) - http://www.bohemiancoding.com/sketch -->
    <title>icon_menu_admin</title>
    <desc>Created with Sketch.</desc>
    <defs></defs>
    <g id="数据" stroke="none" stroke-width="1" fill="none" fill-rule="evenodd" opacity="0.65">
        <g transform="translate(-23.000000, -148.000000)" id="Group-3">
            <g>
                <g id="Group-6-Copy" transform="translate(23.000000, 143.158889)">
                    <g id="Group-3-Copy" transform="translate(1.000000, 4.004444)">
                        <g id="Group-134" transform="translate(-1.000000, 1.001111)">
                            <rect id="Rectangle-44-Copy-6" x="0" y="0" width="14" height="14.0155556"></rect>
                            <g id="isv" transform="translate(0.875000, 0.875972)" fill="#FFFFFF" fill-rule="nonzero">
                                <path d="M10.8828125,7.39101563 C10.6107422,7.39101563 10.390625,7.61137739 10.390625,7.88375 L10.390625,11.2781424 L1.859375,11.2781424 L1.859375,7.88375 C1.859375,7.61137739 1.63925781,7.39101563 1.3671875,7.39101563 C1.09511719,7.39101563 0.875,7.61137739 0.875,7.88375 L0.875,11.2781424 C0.875,11.8228876 1.31523437,12.2636111 1.859375,12.2636111 L10.390625,12.2636111 C10.9347656,12.2636111 11.375,11.8228876 11.375,11.2781424 L11.375,7.88375 C11.375,7.61137739 11.1548828,7.39101563 10.8828125,7.39101563 Z M11.265625,0 L0.984375,0 C0.440234375,0 0,0.440723524 0,0.98546875 L0,3.77078668 C0,5.0820076 1.06230469,6.14549262 2.37207031,6.14549262 C3.13769531,6.14549262 3.81855469,5.78278537 4.25195312,5.21887826 C4.68535156,5.78278537 5.36621094,6.14549262 6.13183594,6.14549262 C6.89335938,6.14549262 7.57148437,5.78689149 8.00488281,5.2284592 C8.43828125,5.78689149 9.11640625,6.14549262 9.87792969,6.14549262 C11.1876953,6.14549262 12.25,5.0820076 12.25,3.77078668 L12.25,0.98546875 C12.25,0.440723524 11.8097656,0 11.265625,0 Z M3.75976562,2.37470595 L3.75976562,3.77078668 C3.75976562,4.53863108 3.1390625,5.16002387 2.37207031,5.16002387 C1.60507812,5.16002387 0.984375,4.53863108 0.984375,3.77078668 L0.984375,0.98546875 L3.75976562,0.98546875 L3.75976562,2.37470595 Z M6.13183594,5.16002387 C5.36484375,5.16002387 4.74414062,4.53863108 4.74414062,3.77078668 L4.74414062,0.98546875 L7.50585938,0.98546875 L7.50585938,3.77078668 C7.50585938,3.82279753 7.50722656,3.87480838 7.51132812,3.92681923 C7.43339844,4.62075347 6.84550781,5.16002387 6.13183594,5.16002387 Z M11.265625,3.77078668 C11.265625,4.53863108 10.6449219,5.16002387 9.87792969,5.16002387 C9.1109375,5.16002387 8.49023438,4.53863108 8.49023438,3.77078668 L8.49023438,0.98546875 L11.265625,0.98546875 L11.265625,3.77078668 Z" id="Shape"></path>
                            </g>
                        </g>
                    </g>
                </g>
            </g>
        </g>
    </g>
</svg>