<?xml version="1.0" encoding="UTF-8"?>
<svg width="14px" height="14px" viewBox="0 0 14 14" version="1.1" xmlns="http://www.w3.org/2000/svg" xmlns:xlink="http://www.w3.org/1999/xlink">
    <!-- Generator: Sketch 50.2 (55047) - http://www.bohemiancoding.com/sketch -->
    <title>icon_menu_version</title>
    <desc>Created with Sketch.</desc>
    <defs></defs>
    <g id="数据" stroke="none" stroke-width="1" fill="none" fill-rule="evenodd" opacity="0.649999976">
        <g transform="translate(-24.000000, -416.000000)" fill="#FFFFFF" fill-rule="nonzero" id="Group-3">
            <g>
                <g id="Group-5-Copy-2" transform="translate(24.000000, 412.457778)">
                    <g transform="translate(0.000000, 4.004444)" id="详情">
                        <g transform="translate(1.000000, 1.001111)">
                            <path d="M11.0357143,0 L0.964285714,0 C0.43125,0 0,0.431729167 0,0.965357143 L0,11.0479762 C0,11.5816042 0.43125,12.0133333 0.964285714,12.0133333 L11.0357143,12.0133333 C11.56875,12.0133333 12,11.5816042 12,11.0479762 L12,0.965357143 C12,0.431729167 11.56875,0 11.0357143,0 Z M11.0357143,11.0479762 L0.964285714,11.0479762 L0.964285714,0.965357143 L11.0357143,0.965357143 L11.0357143,11.0479762 Z" id="Shape"></path>
                            <path d="M4.76785714,9.06363095 L8.94642857,9.06363095 C9.21294643,9.06363095 9.42857143,8.84776637 9.42857143,8.58095238 C9.42857143,8.31413839 9.21294643,8.09827381 8.94642857,8.09827381 L4.76785714,8.09827381 C4.50133929,8.09827381 4.28571429,8.31413839 4.28571429,8.58095238 C4.28571429,8.84776637 4.50133929,9.06363095 4.76785714,9.06363095 Z" id="Shape"></path>
                            <path d="M4.76785714,3.91505952 L8.94642857,3.91505952 C9.21294643,3.91505952 9.42857143,3.69919494 9.42857143,3.43238095 C9.42857143,3.16556696 9.21294643,2.94970238 8.94642857,2.94970238 L4.76785714,2.94970238 C4.50133929,2.94970238 4.28571429,3.16556696 4.28571429,3.43238095 C4.28571429,3.69919494 4.50133929,3.91505952 4.76785714,3.91505952 Z" id="Shape"></path>
                            <path d="M4.76785714,6.48934524 L8.94642857,6.48934524 C9.21294643,6.48934524 9.42857143,6.27348065 9.42857143,6.00666667 C9.42857143,5.73985268 9.21294643,5.5239881 8.94642857,5.5239881 L4.76785714,5.5239881 C4.50133929,5.5239881 4.28571429,5.73985268 4.28571429,6.00666667 C4.28571429,6.27348065 4.50133929,6.48934524 4.76785714,6.48934524 Z" id="Shape"></path>
                            <ellipse id="Oval" cx="3.05357143" cy="8.58095238" rx="1" ry="1"></ellipse>
                            <ellipse id="Oval" cx="3.05357143" cy="3.43238095" rx="1" ry="1"></ellipse>
                            <ellipse id="Oval" cx="3.05357143" cy="6.00666667" rx="1" ry="1"></ellipse>
                        </g>
                    </g>
                </g>
            </g>
        </g>
    </g>
</svg>