<?xml version="1.0" encoding="UTF-8"?>
<svg width="58px" height="58px" viewBox="0 0 58 58" version="1.1" xmlns="http://www.w3.org/2000/svg" xmlns:xlink="http://www.w3.org/1999/xlink">
    <!-- Generator: Sketch 49 (51002) - http://www.bohemiancoding.com/sketch -->
    <title>img_bg_001</title>
    <desc>Created with Sketch.</desc>
    <defs></defs>
    <g id="注册登录" stroke="none" stroke-width="1" fill="none" fill-rule="evenodd" fill-opacity="0.160212862">
        <g transform="translate(-398.000000, -236.000000)" fill="#00A7FF" id="Group-9">
            <g transform="translate(398.000000, 236.000000)">
                <path d="M54.5,58 C52.5670034,58 51,56.4329966 51,54.5 C51,52.5670034 52.5670034,51 54.5,51 C56.4329966,51 58,52.5670034 58,54.5 C58,56.4329966 56.4329966,58 54.5,58 Z M37.5,58 C35.5670034,58 34,56.4329966 34,54.5 C34,52.5670034 35.5670034,51 37.5,51 C39.4329966,51 41,52.5670034 41,54.5 C41,56.4329966 39.4329966,58 37.5,58 Z M20.5,58 C18.5670034,58 17,56.4329966 17,54.5 C17,52.5670034 18.5670034,51 20.5,51 C22.4329966,51 24,52.5670034 24,54.5 C24,56.4329966 22.4329966,58 20.5,58 Z M3.5,58 C1.56700338,58 0,56.4329966 0,54.5 C0,52.5670034 1.56700338,51 3.5,51 C5.43299662,51 7,52.5670034 7,54.5 C7,56.4329966 5.43299662,58 3.5,58 Z M54.5,41 C52.5670034,41 51,39.4329966 51,37.5 C51,35.5670034 52.5670034,34 54.5,34 C56.4329966,34 58,35.5670034 58,37.5 C58,39.4329966 56.4329966,41 54.5,41 Z M37.5,41 C35.5670034,41 34,39.4329966 34,37.5 C34,35.5670034 35.5670034,34 37.5,34 C39.4329966,34 41,35.5670034 41,37.5 C41,39.4329966 39.4329966,41 37.5,41 Z M20.5,41 C18.5670034,41 17,39.4329966 17,37.5 C17,35.5670034 18.5670034,34 20.5,34 C22.4329966,34 24,35.5670034 24,37.5 C24,39.4329966 22.4329966,41 20.5,41 Z M3.5,41 C1.56700338,41 0,39.4329966 0,37.5 C0,35.5670034 1.56700338,34 3.5,34 C5.43299662,34 7,35.5670034 7,37.5 C7,39.4329966 5.43299662,41 3.5,41 Z M54.5,24 C52.5670034,24 51,22.4329966 51,20.5 C51,18.5670034 52.5670034,17 54.5,17 C56.4329966,17 58,18.5670034 58,20.5 C58,22.4329966 56.4329966,24 54.5,24 Z M37.5,24 C35.5670034,24 34,22.4329966 34,20.5 C34,18.5670034 35.5670034,17 37.5,17 C39.4329966,17 41,18.5670034 41,20.5 C41,22.4329966 39.4329966,24 37.5,24 Z M20.5,24 C18.5670034,24 17,22.4329966 17,20.5 C17,18.5670034 18.5670034,17 20.5,17 C22.4329966,17 24,18.5670034 24,20.5 C24,22.4329966 22.4329966,24 20.5,24 Z M3.5,24 C1.56700338,24 0,22.4329966 0,20.5 C0,18.5670034 1.56700338,17 3.5,17 C5.43299662,17 7,18.5670034 7,20.5 C7,22.4329966 5.43299662,24 3.5,24 Z M54.5,7 C52.5670034,7 51,5.43299662 51,3.5 C51,1.56700338 52.5670034,0 54.5,0 C56.4329966,0 58,1.56700338 58,3.5 C58,5.43299662 56.4329966,7 54.5,7 Z M37.5,7 C35.5670034,7 34,5.43299662 34,3.5 C34,1.56700338 35.5670034,0 37.5,0 C39.4329966,0 41,1.56700338 41,3.5 C41,5.43299662 39.4329966,7 37.5,7 Z M20.5,7 C18.5670034,7 17,5.43299662 17,3.5 C17,1.56700338 18.5670034,0 20.5,0 C22.4329966,0 24,1.56700338 24,3.5 C24,5.43299662 22.4329966,7 20.5,7 Z M3.5,7 C1.56700338,7 0,5.43299662 0,3.5 C0,1.56700338 1.56700338,0 3.5,0 C5.43299662,0 7,1.56700338 7,3.5 C7,5.43299662 5.43299662,7 3.5,7 Z" id="Combined-Shape"></path>
            </g>
        </g>
    </g>
</svg>