<?xml version="1.0" encoding="UTF-8"?>
<svg width="134px" height="86px" viewBox="0 0 134 86" version="1.1" xmlns="http://www.w3.org/2000/svg" xmlns:xlink="http://www.w3.org/1999/xlink">
    <!-- Generator: Sketch 49 (51002) - http://www.bohemiancoding.com/sketch -->
    <title>img_bg_003</title>
    <desc>Created with Sketch.</desc>
    <defs></defs>
    <g id="注册登录" stroke="none" stroke-width="1" fill="none" fill-rule="evenodd" opacity="0.100000001">
        <g transform="translate(-1306.000000, -90.000000)" fill="#00A7FF" id="Group-11">
            <g transform="translate(1306.000000, 90.000000)">
                <path d="M0,80 L269,80 L269,86 L0,86 L0,80 Z M0,64 L269,64 L269,70 L0,70 L0,64 Z M0,48 L269,48 L269,54 L0,54 L0,48 Z M0,32 L269,32 L269,38 L0,38 L0,32 Z M0,16 L269,16 L269,22 L0,22 L0,16 Z M0,0 L269,0 L269,6 L0,6 L0,0 Z" id="Combined-Shape"></path>
            </g>
        </g>
    </g>
</svg>