<?xml version="1.0" encoding="UTF-8"?>
<svg width="135px" height="36px" viewBox="0 0 135 36" version="1.1" xmlns="http://www.w3.org/2000/svg" xmlns:xlink="http://www.w3.org/1999/xlink">
    <!-- Generator: Sketch 50.2 (55047) - http://www.bohemiancoding.com/sketch -->
    <title>img_logo</title>
    <desc>Created with Sketch.</desc>
    <defs>
        <linearGradient x1="3.061617e-15%" y1="50%" x2="100%" y2="50%" id="linearGradient-1">
            <stop stop-color="#00DCFF" offset="0%"></stop>
            <stop stop-color="#00B7FF" offset="100%"></stop>
        </linearGradient>
    </defs>
    <g id="数据" stroke="none" stroke-width="1" fill="none" fill-rule="evenodd">
        <g transform="translate(-25.000000, -16.000000)" id="Group-3">
            <g>
                <g id="Group-7" transform="translate(25.000000, 15.000000)">
                    <g id="Group-4" transform="translate(0.000000, 0.016667)">
                        <g id="Group-2" transform="translate(0.000000, 1.001111)" fill="url(#linearGradient-1)" fill-rule="nonzero">
                            <g id="Group">
                                <path d="M41.2520352,15.844874 C41.0941874,15.925202 40.921904,15.9836619 40.738407,16.0156637 C39.7463496,16.1886786 38.8021992,15.5228319 38.6295882,14.5284534 C37.5217611,8.14647767 32.2714474,3.65506339 25.8370411,3.65506339 C18.3745729,3.65506339 12.4053498,9.63825186 12.4053498,17.1181788 C12.4053498,18.7617563 12.708725,20.3643631 13.2932359,21.8678382 C13.6588524,22.8082748 13.1946482,23.8677334 12.2564067,24.2342054 C11.3181652,24.6006773 10.2611794,24.135387 9.89556284,23.1949504 C9.73890051,22.7919846 9.59800673,22.38341 9.47314645,21.9699671 C7.31307944,23.6390442 5.73663481,25.1033278 4.75249608,26.342004 C3.76232036,27.5882787 3.53599103,28.3453263 3.69738696,28.6856902 C3.77102828,28.8409905 4.04832565,29.0010342 4.6962883,29.097993 C5.51884628,29.2210775 6.65855316,29.1625874 8.02470653,28.9329879 C10.1966427,28.5679664 12.6365293,27.840882 14.90783,27.0049841 C18.3098581,25.7529493 24.4364103,22.8005914 33.2140314,18.1759034 C33.2904659,18.1348053 33.3536148,18.0727008 33.3960629,17.9968827 C33.5192607,17.7768341 33.4411641,17.4983443 33.2216291,17.3748583 L23.1073602,11.6856892 C22.9710994,11.6090439 22.8174717,11.5687896 22.6612214,11.5687896 C22.1577404,11.5687896 21.7495884,11.9778965 21.7495884,12.4825555 L21.7495884,20.3809139 C21.7495884,21.3902317 20.9332843,22.2084456 19.9263223,22.2084456 C18.9193603,22.2084456 18.1030562,21.3902317 18.1030562,20.3809139 L18.1030562,12.4825555 C18.1030562,9.95926074 20.1438163,7.91372622 22.6612214,7.91372622 C23.4424726,7.91372622 24.2106111,8.11499791 24.8919155,8.49822441 L35.0061844,14.1873934 C36.9819987,15.298768 37.6848684,17.8051763 36.5760879,19.785613 C36.1940557,20.4679758 35.6257152,21.0269163 34.9242577,21.4040106 C28.4658439,24.8068256 23.4176157,27.319913 19.7568966,28.9511392 C21.6193439,29.8869168 23.6873765,30.3827144 25.8370411,30.3827144 C31.3188811,30.3827144 36.2200364,26.9419627 38.1845956,21.8692175 C38.5489898,20.9283044 39.6053701,20.4616347 40.544087,20.8268815 C41.4828039,21.1921283 41.9483844,22.2509801 41.5839901,23.1918931 C39.08045,29.6563568 32.8393646,34.0377778 25.8370411,34.0377778 C22.8794121,34.0377778 20.0321966,33.2931436 17.5101128,31.8950918 C16.8386422,31.5228795 16.1936206,31.1061029 15.5793357,30.6480147 C13.2859984,31.4646001 10.8752584,32.1600017 8.62770492,32.5377318 C6.91661985,32.8253014 5.42126094,32.9020436 4.15787506,32.7129952 C2.42169821,32.4532002 1.07893995,31.6782199 0.403934093,30.2547166 C-0.488338614,28.3730245 0.135718729,26.2856189 1.89998499,24.065043 C3.33060482,22.2644079 5.61813406,20.2307838 8.77809143,17.9269734 C8.76526277,17.6582745 8.75881761,17.3886188 8.75881761,17.1181788 C8.75881761,7.6196161 16.3606488,7.10542736e-15 25.8370411,7.10542736e-15 C29.7526645,7.10542736e-15 33.3365245,1.31211623 36.1683828,3.56443381 C39.8846311,2.23476771 42.8137494,1.47361355 45.0297069,1.2883049 C47.7488486,1.06091766 49.7274393,1.68332853 50.6476888,3.50027259 C51.1872908,4.56566487 51.0787036,5.7432626 50.5150059,6.93812612 C50.0940725,7.83037351 49.4008242,8.7735941 48.4506339,9.79614216 C46.8909504,11.4745968 44.5985581,13.403377 41.7056162,15.5171203 C41.5756427,15.6457041 41.4257702,15.7554291 41.2597794,15.8409095 C41.2574548,15.8425878 41.2551297,15.8442662 41.2528044,15.8459447 L41.2520352,15.844874 Z M41.4962677,11.1021287 C43.3019382,9.69392858 44.753287,8.41230512 45.7822612,7.30497371 C46.4983909,6.53431019 46.9827112,5.87535305 47.2184607,5.37563779 C47.2704422,5.26545321 47.3053601,5.17369869 47.3261465,5.10264146 C47.2809951,5.07772071 47.2184094,5.05117153 47.1353995,5.02505886 C46.7513772,4.90425587 46.1448196,4.86281582 45.3328818,4.93071382 C43.7896906,5.05976263 41.6730775,5.5659675 38.9979384,6.45317121 C40.0517956,7.83446517 40.8996919,9.39749888 41.4962677,11.1021287 Z" id="Combined-Shape"></path>
                            </g>
                        </g>
                        <text id="全播" font-family="PingFang-SC-Bold, PingFang SC" font-size="16" font-weight="bold" fill="#FFFFFF">
                            <tspan x="57" y="17.0122222">全播</tspan>
                        </text>
                        <text id="后台管理系统" opacity="0.600000024" font-family="PingFang-SC-Regular, PingFang SC" font-size="13" font-weight="normal" fill="#FFFFFF">
                            <tspan x="57" y="34.0322222">后台管理系统</tspan>
                        </text>
                    </g>
                </g>
            </g>
        </g>
    </g>
</svg>